HIERARCHY
ROOT Hips
{
	OFFSET 15.585500 22.159004 44.358299
	CHANNELS 6 Xposition Yposition Zposition Zrotation Xrotation Yrotation
	JOINT Chest
	{
		OFFSET -0.128500 0.160400 6.566002
		CHANNELS 6 Xposition Yposition Zposition Zrotation Xrotation Yrotation
		JOINT Chest2
		{
			OFFSET 0.000000 0.000000 3.554802
			CHANNELS 6 Xposition Yposition Zposition Zrotation Xrotation Yrotation
			JOINT Neck
			{
				OFFSET 0.000000 0.000000 8.267998
				CHANNELS 6 Xposition Yposition Zposition Zrotation Xrotation Yrotation
				JOINT Head
				{
					OFFSET 0.000000 0.000002 2.173897
					CHANNELS 6 Xposition Yposition Zposition Zrotation Xrotation Yrotation
					End Site
					{
						OFFSET 0.000000 0.000000 7.718697
					}
				}
			}
			JOINT LeftCollar
			{
				OFFSET 2.057500 0.117599 5.946301
				CHANNELS 6 Xposition Yposition Zposition Zrotation Xrotation Yrotation
				JOINT LeftShoulder
				{
					OFFSET 4.957699 0.000000 0.000000
					CHANNELS 6 Xposition Yposition Zposition Zrotation Xrotation Yrotation
					JOINT LeftElbow
					{
						OFFSET 0.000000 0.000000 -8.465500
						CHANNELS 6 Xposition Yposition Zposition Zrotation Xrotation Yrotation
						JOINT LeftWrist
						{
							OFFSET 0.000000 -0.000002 -14.594898
							CHANNELS 6 Xposition Yposition Zposition Zrotation Xrotation Yrotation
							End Site
							{
								OFFSET 0.000000 0.000000 -2.173901
							}
						}
					}
				}
			}
			JOINT RightCollar
			{
				OFFSET -3.048500 -0.728800 6.604099
				CHANNELS 6 Xposition Yposition Zposition Zrotation Xrotation Yrotation
				JOINT RightShoulder
				{
					OFFSET -3.710299 0.000000 0.000000
					CHANNELS 6 Xposition Yposition Zposition Zrotation Xrotation Yrotation
					JOINT RightElbow
					{
						OFFSET 0.000000 0.000000 -10.450901
						CHANNELS 6 Xposition Yposition Zposition Zrotation Xrotation Yrotation
						JOINT RightWrist
						{
							OFFSET 0.000000 0.000000 -12.539200
							CHANNELS 6 Xposition Yposition Zposition Zrotation Xrotation Yrotation
							End Site
							{
								OFFSET 0.000000 -0.000002 -2.173901
							}
						}
					}
				}
			}
		}
	}
	JOINT LeftHip
	{
		OFFSET 2.442599 -0.601400 -2.767502
		CHANNELS 6 Xposition Yposition Zposition Zrotation Xrotation Yrotation
		JOINT LeftKnee
		{
			OFFSET 0.000000 -0.000002 -17.033703
			CHANNELS 6 Xposition Yposition Zposition Zrotation Xrotation Yrotation
			JOINT LeftAnkle
			{
				OFFSET 0.000000 -0.000002 -19.318800
				CHANNELS 6 Xposition Yposition Zposition Zrotation Xrotation Yrotation
				End Site
				{
					OFFSET 0.000000 -8.281900 0.000000
				}
			}
		}
	}
	JOINT RightHip
	{
		OFFSET -3.126200 -0.601400 -2.283501
		CHANNELS 6 Xposition Yposition Zposition Zrotation Xrotation Yrotation
		JOINT RightKnee
		{
			OFFSET 0.000000 -0.000002 -16.919401
			CHANNELS 6 Xposition Yposition Zposition Zrotation Xrotation Yrotation
			JOINT RightAnkle
			{
				OFFSET 0.000000 -0.000002 -18.035900
				CHANNELS 6 Xposition Yposition Zposition Zrotation Xrotation Yrotation
				End Site
				{
					OFFSET 0.000000 -9.230099 0.000000
				}
			}
		}
	}
}
MOTION
Frames: 8
Frame Time: 0.041667
21.849396 22.195606 44.019600 -0.462776 -3.562147 0.040615 -0.128501 0.160402 6.566006 0.614364 8.444623 -0.768913 -0.000001 -0.000000 3.554805 -1.225234 -3.376802 -0.735269 -0.000002 0.000000 8.268003 1.568032 -0.667987 2.102100 0.000001 -0.000002 2.173905 0.994330 0.408762 -0.161414 2.057502 0.117600 5.946307 -19.849858 -1.325344 1.934326 4.957703 -0.000001 0.000006 -20.106076 9.504766 -27.417713 0.000003 -0.000001 -8.465500 94.755727 -118.890945 97.550742 -0.000005 0.000002 -14.594896 -49.003704 -26.888624 -71.588025 -3.048501 -0.728801 6.604099 29.113804 -1.254387 -0.312694 -3.710298 0.000001 0.000006 26.468506 -0.109796 41.555971 0.000002 0.000001 -10.450901 -22.007993 -75.445095 -49.150837 0.000003 0.000001 -12.539197 -73.182130 0.476258 30.651509 2.442598 -0.601398 -2.767497 -5.400615 4.938797 1.796546 0.000002 -0.000004 -17.033699 14.658295 12.406463 8.231296 -0.000000 -0.000002 -19.318806 8.844152 22.591786 -8.765919 -3.126194 -0.601400 -2.283498 -16.035722 -22.429320 11.952598 -0.000001 -0.000002 -16.919395 49.522515 34.060801 -44.149837 -0.000000 -0.000004 -18.035900 -8.912791 45.344731 -49.178509
21.846596 22.199608 44.025505 -0.398320 -3.476310 0.201638 -0.128500 0.160402 6.566006 0.570606 8.393589 -0.915111 -0.000001 -0.000000 3.554806 -1.214140 -3.394137 -0.740059 -0.000001 0.000002 8.267997 1.565284 -0.766843 2.092614 -0.000001 0.000006 2.173907 0.973235 0.375488 -0.145296 2.057505 0.117602 5.946308 -19.886806 -1.333520 1.921176 4.957701 -0.000002 -0.000002 -20.175645 9.565885 -27.483672 0.000004 0.000003 -8.465505 94.666961 -119.145355 97.225188 0.000003 0.000005 -14.594902 -48.707845 -27.071714 -71.334509 -3.048502 -0.728797 6.604100 29.182864 -1.249472 -0.312992 -3.710299 -0.000001 -0.000005 26.547426 -0.039066 41.705852 -0.000003 0.000008 -10.450897 -22.604562 -75.549624 -49.594376 0.000002 -0.000002 -12.539194 -73.225495 0.468826 30.671883 2.442603 -0.601393 -2.767501 -5.346095 4.849947 1.614138 0.000001 -0.000003 -17.033701 14.922124 12.442224 8.191823 0.000003 0.000005 -19.318802 8.538504 22.644939 -8.907224 -3.126200 -0.601398 -2.283504 -16.191238 -22.473168 11.726155 -0.000001 -0.000000 -16.919397 49.578161 34.043930 -44.104492 -0.000002 -0.000004 -18.035902 -8.874487 45.352743 -49.326147
21.844296 22.204405 44.031605 -0.348640 -3.391578 0.196600 -0.128502 0.160402 6.566006 0.517506 8.347694 -0.896162 -0.000003 0.000004 3.554806 -1.202402 -3.409023 -0.742858 -0.000000 0.000001 8.268000 1.562546 -0.872180 2.083988 0.000002 0.000001 2.173890 0.947659 0.337779 -0.131102 2.057503 0.117601 5.946309 -19.916804 -1.347882 1.900102 4.957701 0.000000 0.000007 -20.245104 9.627283 -27.540530 -0.000001 0.000005 -8.465500 94.563149 -119.410640 96.882805 -0.000005 0.000004 -14.594895 -48.455387 -27.281333 -71.068323 -3.048501 -0.728801 6.604106 29.255903 -1.247829 -0.297528 -3.710294 0.000000 0.000002 26.623341 0.029660 41.844672 0.000002 0.000003 -10.450904 -23.225239 -75.657944 -50.061079 0.000005 -0.000005 -12.539198 -73.268027 0.458262 30.697469 2.442596 -0.601395 -2.767497 -5.289629 4.744848 1.595004 -0.000003 -0.000005 -17.033701 15.166667 12.479136 8.156503 0.000004 0.000000 -19.318800 8.246887 22.695650 -9.038561 -3.126203 -0.601397 -2.283502 -16.267923 -22.564841 11.672395 -0.000001 -0.000004 -16.919401 49.644304 34.023324 -44.063268 -0.000001 -0.000000 -18.035898 -8.834085 45.356482 -49.503971
21.842297 22.210205 44.037899 -0.300682 -3.300268 0.191147 -0.128497 0.160402 6.566000 0.466326 8.297834 -0.878434 -0.000001 0.000001 3.554808 -1.188683 -3.421283 -0.743082 -0.000001 0.000002 8.268001 1.559040 -0.984735 2.075922 0.000001 0.000005 2.173890 0.917107 0.296128 -0.119353 2.057503 0.117602 5.946307 -19.941448 -1.368996 1.871614 4.957699 0.000000 0.000002 -20.314776 9.690141 -27.590232 0.000001 -0.000006 -8.465506 94.445315 -119.686894 96.524329 0.000005 0.000006 -14.594898 -48.213896 -27.512629 -70.766688 -3.048504 -0.728797 6.604104 29.331301 -1.250468 -0.267438 -3.710300 0.000001 -0.000002 26.695014 0.094920 41.973937 0.000002 0.000012 -10.450895 -23.869781 -75.769706 -50.554243 0.000003 0.000005 -12.539197 -73.309916 0.443419 30.729322 2.442599 -0.601397 -2.767496 -5.232136 4.632150 1.573310 -0.000004 -0.000001 -17.033703 15.384417 12.514590 8.126927 -0.000000 -0.000003 -19.318802 7.977103 22.743912 -9.156522 -3.126195 -0.601400 -2.283494 -16.342351 -22.664801 11.617798 -0.000002 -0.000003 -16.919399 49.717217 33.998769 -44.025026 0.000000 -0.000003 -18.035898 -8.792954 45.355844 -49.708771
21.840500 22.216904 44.044804 -0.254627 -3.203076 0.185462 -0.128504 0.160398 6.566002 0.417423 8.245619 -0.861501 -0.000001 0.000000 3.554810 -1.172086 -3.431328 -0.740687 0.000001 0.000002 8.267997 1.553572 -1.105063 2.067902 0.000002 0.000009 2.173901 0.881676 0.251235 -0.110178 2.057503 0.117600 5.946305 -19.962536 -1.396765 1.836998 4.957701 0.000004 0.000008 -20.384817 9.755378 -27.635680 0.000002 -0.000001 -8.465505 94.315043 -119.973584 96.151346 0.000003 -0.000004 -14.594892 -47.979982 -27.764661 -70.428587 -3.048501 -0.728800 6.604103 29.406946 -1.258329 -0.224133 -3.710300 0.000005 -0.000003 26.762507 0.155392 42.095672 -0.000005 0.000012 -10.450902 -23.330249 -76.240170 -49.869055 0.000002 -0.000001 -12.539189 -73.811607 0.462144 30.755170 2.442596 -0.601395 -2.767500 -5.174849 4.513558 1.548832 0.000001 -0.000001 -17.033697 15.569252 12.546378 8.104364 0.000003 -0.000001 -19.318798 7.735548 22.789638 -9.257703 -3.126200 -0.601398 -2.283502 -16.411324 -22.770678 11.562507 0.000000 -0.000002 -16.919403 49.792332 33.970386 -43.988105 -0.000001 -0.000004 -18.035898 -8.752037 45.350875 -49.936268
21.838497 22.224808 44.052105 -0.210374 -3.100798 0.179443 -0.128499 0.160400 6.566004 0.370257 8.192654 -0.844904 -0.000001 0.000001 3.554809 -1.151403 -3.439273 -0.735505 0.000004 0.000005 8.267995 1.519261 -1.240480 2.018792 -0.000001 0.000002 2.173901 0.867728 0.210461 -0.063594 2.057504 0.117603 5.946305 -19.981969 -1.431240 1.797059 4.957699 0.000000 0.000008 -20.455358 9.823503 -27.679360 0.000000 0.000008 -8.465502 94.174129 -120.270329 95.765331 -0.000002 -0.000001 -14.594898 -47.750167 -28.036035 -70.053671 -3.048500 -0.728799 6.604102 29.480500 -1.272448 -0.169782 -3.710298 -0.000002 0.000000 26.826770 0.210794 42.212027 -0.000002 0.000007 -10.450906 -24.134817 -76.327822 -50.534787 0.000003 0.000002 -12.539191 -73.813711 0.440918 30.792976 2.442603 -0.601400 -2.767496 -5.119202 4.391060 1.521267 0.000001 0.000000 -17.033699 15.717887 12.572551 8.089742 0.000000 -0.000000 -19.318798 7.525778 22.833198 -9.339710 -3.126201 -0.601398 -2.283495 -16.471391 -22.880032 11.506915 -0.000000 0.000001 -16.919401 49.864558 33.938718 -43.950679 0.000002 -0.000002 -18.035896 -8.712535 45.341910 -50.180546
21.836098 22.233904 44.060204 -0.167123 -2.994329 0.173019 -0.128499 0.160408 6.566010 0.323969 8.140259 -0.828019 -0.000003 0.000003 3.554807 -1.126256 -3.446016 -0.727728 0.000005 0.000007 8.267991 1.513658 -1.376409 2.018543 0.000001 0.000005 2.173896 0.817890 0.161139 -0.068507 2.057506 0.117605 5.946299 -20.001471 -1.471866 1.753886 4.957702 0.000003 0.000004 -20.525383 9.894629 -27.724904 0.000002 -0.000000 -8.465506 94.024029 -120.575843 95.367951 -0.000002 0.000001 -14.594898 -47.522571 -28.325983 -69.641606 -3.048498 -0.728798 6.604097 29.551797 -1.293005 -0.050222 -3.710297 0.000005 0.000004 26.888570 0.236209 42.275306 -0.000005 0.000007 -10.450902 -24.963331 -76.415945 -51.232467 0.000003 -0.000009 -12.539193 -73.817392 0.418042 30.833325 2.442598 -0.601392 -2.767492 -5.066623 4.266052 1.490449 -0.000004 -0.000005 -17.033699 15.828673 12.591630 8.083778 -0.000002 -0.000000 -19.318798 7.349819 22.874908 -9.400717 -3.126198 -0.601394 -2.283490 -16.520228 -22.990029 11.451481 -0.000001 -0.000001 -16.919403 49.928942 33.903826 -43.910692 0.000000 -0.000000 -18.035896 -8.675384 45.328909 -50.435353
21.832897 22.244205 44.069103 -0.120969 -2.884170 0.166294 -0.128500 0.160398 6.566003 0.274718 8.089386 -0.810206 -0.000000 0.000006 3.554805 -1.096568 -3.452046 -0.717662 0.000001 0.000003 8.267992 1.504818 -1.520983 2.017288 0.000003 -0.000001 2.173893 0.764947 0.112403 -0.075407 2.057506 0.117603 5.946298 -20.022472 -1.517955 1.708656 4.957702 0.000003 0.000009 -20.594253 9.968310 -27.774710 0.000000 -0.000000 -8.465502 93.866709 -120.889813 94.961172 -0.000003 -0.000005 -14.594901 -47.296014 -28.633830 -69.191995 -3.048501 -0.728799 6.604093 29.616325 -1.320252 0.014886 -3.710300 0.000003 -0.000004 26.953666 0.286013 42.392341 -0.000004 0.000009 -10.450908 -25.814150 -76.504450 -51.958957 0.000003 -0.000008 -12.539197 -73.825022 0.394428 30.875867 2.442599 -0.601398 -2.767499 -5.021440 4.139668 1.456182 -0.000004 -0.000001 -17.033705 15.902156 12.602649 8.086736 -0.000001 -0.000003 -19.318804 7.206927 22.915201 -9.439072 -3.126201 -0.601405 -2.283499 -16.558967 -23.099124 11.396827 -0.000001 -0.000001 -16.919401 50.031204 33.906196 -43.931060 0.000003 0.000000 -18.035902 -8.671317 45.249901 -50.654370
